<?xml version="1.0" standalone="no"?>
<!DOCTYPE svg PUBLIC "-//W3C//DTD SVG 20010904//EN"
 "http://www.w3.org/TR/2001/REC-SVG-20010904/DTD/svg10.dtd">
<svg version="1.0" xmlns="http://www.w3.org/2000/svg"
 width="350.000000pt" height="175.000000pt" viewBox="0 0 350.000000 175.000000"
 preserveAspectRatio="xMidYMid meet">

<g transform="translate(0.000000,175.000000) scale(0.100000,-0.100000)"
fill="#000000" stroke="none">
<path d="M0 875 l0 -875 1750 0 1750 0 0 875 0 875 -1750 0 -1750 0 0 -875z
m1170 425 c0 -71 -79 -160 -142 -160 -26 0 -27 2 -21 33 12 64 46 107 108 140
44 24 55 21 55 -13z m438 -142 l3 -68 54 0 55 0 0 -45 0 -45 -55 0 -55 0 0
-184 c0 -209 2 -216 71 -216 l40 0 -3 -47 -3 -48 -73 1 c-56 0 -78 5 -100 21
-44 32 -51 70 -51 281 l-1 192 -40 0 -40 0 0 45 0 45 40 0 40 0 0 70 0 71 58
-3 57 -3 3 -67z m-657 -49 l62 -22 61 22 c34 12 72 21 86 21 45 0 101 -21 133
-50 l31 -28 -36 -40 c-79 -88 -71 -188 20 -269 l37 -33 -32 -62 c-38 -73 -94
-135 -131 -145 -13 -3 -48 2 -77 11 -66 20 -105 20 -164 -1 -30 -10 -57 -14
-76 -9 -66 17 -160 164 -185 291 -31 152 27 285 141 320 59 18 60 18 130 -6z
m993 -161 c24 -79 57 -182 71 -230 15 -48 31 -85 36 -82 5 3 9 10 9 16 0 5 30
106 67 224 l66 214 59 0 c32 0 58 -2 58 -4 0 -2 -45 -131 -100 -287 -55 -156
-100 -285 -100 -286 0 -2 -29 -3 -64 -3 l-63 0 -98 278 c-54 152 -100 283
-102 290 -4 9 11 12 55 12 l61 0 45 -142z m696 22 l0 -120 115 0 115 0 0 -55
0 -55 -115 0 -115 0 0 -115 0 -115 -50 0 -50 0 0 115 0 114 -112 3 -113 3 -3
53 -3 52 115 0 116 0 0 120 0 120 50 0 50 0 0 -120z"/>
</g>
</svg>
