<?xml version="1.0" standalone="no"?>
<!DOCTYPE svg PUBLIC "-//W3C//DTD SVG 20010904//EN"
 "http://www.w3.org/TR/2001/REC-SVG-20010904/DTD/svg10.dtd">
<svg version="1.0" xmlns="http://www.w3.org/2000/svg"
 width="350.000000pt" height="175.000000pt" viewBox="0 0 350.000000 175.000000"
 preserveAspectRatio="xMidYMid meet">

<g transform="translate(0.000000,175.000000) scale(0.100000,-0.100000)"
fill="#000000" stroke="none">
<path d="M0 875 l0 -875 1750 0 1750 0 0 875 0 875 -1750 0 -1750 0 0 -875z
m1708 232 l3 -87 47 0 c26 0 76 -7 111 -15 170 -41 264 -146 293 -328 15 -99
4 -116 -43 -63 -64 74 -181 121 -325 132 l-84 7 0 -81 c0 -44 -4 -83 -9 -87
-11 -6 -403 295 -399 307 5 14 383 306 393 304 6 -2 11 -42 13 -89z"/>
</g>
</svg>
