<?xml version="1.0" standalone="no"?>
<!DOCTYPE svg PUBLIC "-//W3C//DTD SVG 20010904//EN"
 "http://www.w3.org/TR/2001/REC-SVG-20010904/DTD/svg10.dtd">
<svg version="1.0" xmlns="http://www.w3.org/2000/svg"
 width="350.000000pt" height="175.000000pt" viewBox="0 0 350.000000 175.000000"
 preserveAspectRatio="xMidYMid meet">

<g transform="translate(0.000000,175.000000) scale(0.100000,-0.100000)"
fill="#000000" stroke="none">
<path d="M0 875 l0 -875 1750 0 1750 0 0 875 0 875 -1750 0 -1750 0 0 -875z
m1253 480 c98 -33 257 -164 243 -200 -5 -15 -13 -11 -49 22 -63 58 -134 104
-185 119 -133 40 -252 -14 -252 -115 0 -66 -62 -61 736 -61 l724 0 0 33 c-1
41 -30 105 -63 136 -39 35 -101 35 -133 -2 -29 -34 -30 -61 -5 -110 10 -20 18
-37 16 -37 -1 0 -16 5 -34 11 -21 7 -38 24 -51 50 -30 58 -26 95 14 135 29 29
41 34 80 34 110 0 202 -82 236 -207 10 -41 12 -43 50 -43 34 0 42 -4 55 -30
l16 -30 -56 0 -55 0 0 -265 c0 -158 -4 -265 -9 -265 -5 0 -21 4 -36 10 l-26
10 1 252 1 253 -90 3 -91 3 0 -91 0 -90 -87 0 c-113 -1 -167 -22 -189 -76 -13
-32 -14 -42 -2 -73 25 -66 109 -99 183 -71 22 8 24 13 15 29 -39 75 55 137
115 76 32 -31 33 -80 4 -111 l-22 -23 28 -33 c62 -73 65 -136 11 -187 -25 -24
-34 -22 -80 13 -18 14 -17 16 13 46 35 36 39 68 14 111 -14 23 -22 27 -38 21
-11 -4 -55 -7 -97 -7 -69 0 -81 3 -119 30 -67 47 -101 103 -102 164 l-1 51
-72 0 -71 0 -6 -50 c-8 -62 -12 -70 -41 -70 -28 0 -92 67 -102 105 -16 63 60
90 217 80 97 -6 109 -5 148 16 31 16 69 24 129 28 l86 6 0 50 0 50 -351 3
-352 2 -3 -76 -3 -77 -95 -2 c-150 -4 -210 -42 -180 -115 13 -30 24 -38 34
-21 3 5 26 18 51 30 60 28 136 28 183 -1 42 -26 76 -96 67 -137 -6 -30 -44
-70 -84 -91 -20 -10 -26 -8 -52 16 l-29 27 51 31 c69 43 81 98 24 108 -63 12
-157 -29 -189 -83 -55 -93 36 -181 216 -211 40 -6 75 -13 76 -14 8 -5 -33 -64
-44 -64 -17 0 -135 40 -169 57 -69 36 -116 78 -140 127 -27 55 -31 87 -14 134
10 28 8 35 -22 72 -54 66 -43 146 26 182 10 6 67 14 125 17 l105 6 0 40 0 40
-207 3 -208 2 0 -265 c0 -158 -4 -265 -9 -265 -5 0 -21 4 -35 10 l-26 10 0
255 0 255 -39 0 c-30 0 -42 5 -55 25 -9 13 -16 27 -16 30 0 3 25 5 55 5 30 0
55 2 55 4 0 2 -7 20 -16 41 -23 57 -11 111 37 157 59 57 156 69 262 33z"/>
</g>
</svg>
