<?xml version="1.0" standalone="no"?>
<!DOCTYPE svg PUBLIC "-//W3C//DTD SVG 20010904//EN"
 "http://www.w3.org/TR/2001/REC-SVG-20010904/DTD/svg10.dtd">
<svg version="1.0" xmlns="http://www.w3.org/2000/svg"
 width="350.000000pt" height="175.000000pt" viewBox="0 0 350.000000 175.000000"
 preserveAspectRatio="xMidYMid meet">

<g transform="translate(0.000000,175.000000) scale(0.100000,-0.100000)"
fill="#000000" stroke="none">
<path d="M0 875 l0 -875 1750 0 1750 0 0 875 0 875 -1750 0 -1750 0 0 -875z
m669 165 c84 -24 121 -103 121 -257 l0 -93 -176 0 -177 0 6 108 c3 59 11 123
18 142 30 88 112 128 208 100z m404 -4 c67 -28 107 -93 107 -172 l0 -44 -130
0 -130 0 0 -50 0 -50 185 0 185 0 0 160 0 160 30 0 30 0 0 -175 0 -175 -250 0
-250 0 0 103 c0 120 9 160 47 200 51 54 114 70 176 43z m533 -20 l33 -33 22
24 c13 13 40 29 61 35 32 9 45 9 73 -5 98 -47 100 -214 4 -290 l-34 -27 36 0
c46 0 99 35 121 80 27 53 23 135 -7 189 -20 34 -23 46 -13 52 31 20 78 -73 78
-155 0 -89 -44 -158 -120 -189 -46 -19 -228 -20 -295 -2 -57 16 -106 60 -129
117 -62 148 69 305 170 204z m622 14 c45 -28 72 -89 72 -168 0 -107 -54 -182
-133 -182 -32 0 -46 7 -78 39 -25 25 -39 48 -39 65 0 35 15 33 30 -4 32 -76
117 -63 149 23 15 40 14 111 -3 152 -34 80 -130 70 -151 -17 -4 -16 -11 -28
-16 -28 -15 0 -10 50 7 79 35 60 103 77 162 41z m451 -9 c46 -24 76 -71 67
-107 -4 -13 -18 -34 -32 -48 -25 -23 -26 -24 -6 -30 31 -10 47 -59 31 -97 -21
-51 -73 -69 -206 -69 -101 0 -113 -2 -123 -19 -8 -16 -6 -23 12 -35 18 -13 53
-16 175 -16 l153 0 0 -25 0 -25 -169 0 c-146 0 -172 2 -189 18 -34 28 -33 82
3 117 22 23 31 25 129 25 95 0 107 2 132 23 37 32 28 73 -19 85 -37 10 -53 52
-19 52 10 0 29 11 41 24 67 71 -64 148 -172 102 -34 -14 -87 -69 -87 -89 0 -7
6 -4 14 5 17 23 56 36 85 29 77 -20 87 -157 14 -190 -45 -21 -79 -14 -112 24
-30 34 -35 56 -31 120 9 124 177 193 309 126z m357 -114 c61 -67 50 -154 -25
-204 -113 -76 -249 55 -186 178 41 78 151 92 211 26z"/>
<path d="M638 997 c29 -30 38 -84 23 -130 -7 -20 -37 -61 -67 -92 l-54 -55
100 0 100 0 0 70 c0 138 -31 210 -95 225 l-30 7 23 -25z"/>
<path d="M511 974 c-27 -34 -33 -70 -29 -172 l3 -83 44 43 c53 52 80 108 81
165 0 71 -58 99 -99 47z"/>
<path d="M973 990 c-40 -24 -53 -48 -53 -99 l0 -40 115 -3 115 -3 0 38 c0 101
-94 158 -177 107z"/>
<path d="M1486 981 c-28 -31 -38 -85 -25 -133 22 -83 79 -127 166 -128 l52 0
-25 25 c-32 32 -63 101 -64 141 0 90 -60 144 -104 95z"/>
<path d="M1671 974 c-42 -53 -35 -144 15 -204 33 -38 45 -38 82 4 70 81 43
226 -43 226 -24 0 -39 -7 -54 -26z"/>
<path d="M2430 891 c-25 -47 -5 -111 35 -111 28 0 45 26 45 69 0 53 -57 83
-80 42z"/>
<path d="M2873 892 c-35 -27 -45 -67 -29 -107 8 -18 23 -38 34 -44 80 -43 168
39 128 118 -27 52 -89 68 -133 33z"/>
</g>
</svg>
