<?xml version="1.0" standalone="no"?>
<!DOCTYPE svg PUBLIC "-//W3C//DTD SVG 20010904//EN"
 "http://www.w3.org/TR/2001/REC-SVG-20010904/DTD/svg10.dtd">
<svg version="1.0" xmlns="http://www.w3.org/2000/svg"
 width="350.000000pt" height="175.000000pt" viewBox="0 0 350.000000 175.000000"
 preserveAspectRatio="xMidYMid meet">

<g transform="translate(0.000000,175.000000) scale(0.100000,-0.100000)"
fill="#000000" stroke="none">
<path d="M0 875 l0 -875 1750 0 1750 0 0 875 0 875 -1750 0 -1750 0 0 -875z
m932 302 c71 -32 133 -94 166 -166 38 -80 38 -192 0 -272 -33 -72 -94 -134
-167 -168 -80 -37 -192 -37 -271 0 -79 37 -125 81 -161 154 -39 80 -48 160
-25 237 58 200 272 301 458 215z m461 -229 l67 67 0 -138 0 -137 -30 0 c-30 0
-30 1 -30 55 0 30 -3 55 -7 55 -4 0 -21 -14 -39 -31 l-32 -31 -23 31 c-12 17
-26 31 -31 31 -4 0 -8 -25 -8 -56 l0 -55 -32 3 -33 3 -3 119 c-1 66 0 127 4
135 4 12 21 0 68 -51 l63 -67 66 67z m192 36 c8 -10 17 -27 20 -36 9 -26 21
-22 44 16 22 35 39 46 71 46 32 0 30 -15 -10 -71 -22 -30 -40 -58 -40 -62 0
-4 18 -35 40 -67 22 -32 40 -61 40 -64 0 -4 -17 -6 -37 -6 -33 0 -41 5 -64 41
l-27 42 -27 -42 c-23 -35 -33 -41 -61 -41 -19 0 -34 4 -34 10 0 5 18 35 40 66
l39 56 -39 59 c-22 32 -40 62 -40 68 0 18 69 6 85 -15z m373 -9 c27 -32 28
-75 3 -106 -14 -17 -32 -25 -72 -29 l-54 -5 -3 -48 c-2 -32 -7 -47 -15 -44
-13 4 -23 227 -12 255 4 12 18 13 68 9 49 -6 67 -12 85 -32z m433 -90 c32 -69
59 -129 59 -135 0 -25 -23 -6 -40 35 l-19 45 -64 0 -64 0 -17 -45 c-10 -25
-24 -45 -32 -45 -11 0 -8 12 10 53 73 161 99 217 103 217 3 0 31 -56 64 -125z
m81 67 c53 -94 49 -93 97 -13 23 39 46 69 52 66 10 -7 2 -25 -47 -102 -24 -38
-34 -65 -36 -104 -4 -72 -28 -79 -28 -9 0 44 -7 64 -45 127 -25 40 -45 78 -45
83 0 21 27 -3 52 -48z m346 41 c3 -10 -14 -13 -62 -13 l-66 0 0 -45 0 -44 55
-3 c72 -4 71 -22 0 -26 l-56 -3 3 -47 3 -47 63 -3 c88 -4 78 -22 -13 -22 l-75
0 0 128 c0 71 3 132 7 136 12 12 136 2 141 -11z m200 -19 c29 -33 28 -69 -3
-100 l-26 -26 31 -47 c32 -51 36 -61 20 -61 -5 0 -26 25 -46 55 -32 48 -41 55
-70 55 -33 0 -33 0 -36 -52 -2 -30 -8 -53 -15 -56 -10 -3 -13 27 -13 126 0 71
3 132 8 136 4 4 34 5 67 2 47 -5 65 -12 83 -32z m-976 -91 l3 -118 63 -3 c88
-4 78 -22 -13 -22 l-75 0 0 130 c0 165 18 175 22 13z"/>
<path d="M688 1003 c-3 -10 -6 -73 -7 -141 -2 -97 0 -123 11 -127 16 -7 248
125 248 140 0 9 -209 136 -236 143 -6 2 -13 -5 -16 -15z"/>
<path d="M1830 920 l0 -60 38 0 c50 0 82 23 82 60 0 41 -24 60 -76 60 l-44 0
0 -60z"/>
<path d="M2302 908 l-18 -43 39 -3 c21 -2 41 -2 43 1 6 6 -28 87 -37 87 -5 0
-17 -19 -27 -42z"/>
<path d="M2890 925 l0 -55 38 0 c46 0 82 24 82 54 0 34 -30 56 -78 56 l-42 0
0 -55z"/>
</g>
</svg>
