<?xml version="1.0" standalone="no"?>
<!DOCTYPE svg PUBLIC "-//W3C//DTD SVG 20010904//EN"
 "http://www.w3.org/TR/2001/REC-SVG-20010904/DTD/svg10.dtd">
<svg version="1.0" xmlns="http://www.w3.org/2000/svg"
 width="350.000000pt" height="175.000000pt" viewBox="0 0 350.000000 175.000000"
 preserveAspectRatio="xMidYMid meet">

<g transform="translate(0.000000,175.000000) scale(0.100000,-0.100000)"
fill="#000000" stroke="none">
<path d="M0 875 l0 -875 1750 0 1750 0 0 875 0 875 -1750 0 -1750 0 0 -875z
m566 125 l43 -105 1 108 0 107 40 0 40 0 0 -231 0 -230 -32 3 c-32 3 -34 6
-74 110 -22 59 -43 111 -47 114 -4 4 -7 -45 -7 -109 l0 -117 -40 0 -40 0 0
231 0 230 36 -3 c35 -3 36 -4 80 -108z m374 103 c0 -5 18 -105 40 -223 22
-118 40 -218 40 -222 0 -5 -20 -8 -45 -8 -43 0 -44 1 -50 38 -10 59 -13 62
-44 62 -27 0 -31 -4 -36 -37 -11 -62 -11 -63 -61 -63 -43 0 -46 2 -41 23 3 12
22 112 42 221 20 110 38 203 41 208 6 10 114 11 114 1z m248 -40 c6 -27 16
-83 23 -125 7 -43 15 -78 18 -78 4 0 17 56 30 125 l23 126 52 -3 51 -3 3 -228
2 -228 -32 3 -33 3 -5 145 c-3 80 -7 140 -8 135 -1 -6 -11 -62 -22 -125 -30
-170 -26 -160 -59 -160 -33 0 -33 1 -65 188 -8 46 -17 86 -20 89 -3 4 -6 -57
-6 -135 l0 -142 -35 0 -35 0 0 223 c0 123 3 227 7 230 3 4 28 7 54 7 l47 0 10
-47z m385 34 c3 -7 13 -60 22 -117 10 -58 21 -108 25 -112 3 -4 17 47 30 115
l25 122 53 3 52 3 2 -190 c1 -105 2 -208 3 -228 0 -37 -1 -38 -35 -38 -21 0
-36 5 -36 13 -1 6 -3 72 -4 145 -3 146 -4 145 -34 -33 l-21 -125 -32 -3 c-18
-2 -33 0 -33 5 0 23 -48 275 -54 280 -3 4 -6 -60 -6 -140 l0 -147 -36 0 -35 0
2 223 c1 122 3 225 6 230 7 13 100 8 106 -6z m493 -215 c44 -242 45 -236 -18
-230 -27 2 -34 8 -36 28 -7 65 -11 71 -45 68 -30 -3 -33 -6 -41 -50 l-8 -48
-44 0 c-29 0 -44 4 -44 13 0 6 18 108 40 226 22 117 40 215 40 218 0 2 26 3
57 1 l57 -3 42 -223z m279 193 c0 -29 -2 -30 -47 -33 l-48 -3 0 -54 0 -54 42
-3 c40 -3 42 -5 43 -33 0 -28 -3 -30 -40 -35 l-40 -5 -3 -103 -3 -103 -47 3
-47 3 -3 215 c-1 118 0 220 3 228 3 9 28 12 97 10 l93 -3 0 -30z m148 -160 l2
-190 53 -3 52 -3 0 -35 0 -34 -100 0 -100 0 0 231 0 230 46 -3 45 -3 2 -190z
m247 -36 l0 -230 -45 3 -46 3 0 223 c0 122 1 224 1 227 0 3 20 5 45 5 l45 0 0
-231z m160 176 c12 -30 25 -55 29 -55 3 0 13 24 21 53 15 51 16 52 58 55 23 2
42 2 42 0 0 -2 -18 -56 -39 -120 l-39 -118 43 -107 43 -108 -40 -3 c-23 -2
-45 1 -49 5 -5 5 -20 35 -33 68 -20 49 -26 56 -32 40 -42 -114 -39 -110 -84
-113 -38 -3 -42 -1 -35 15 3 10 24 66 45 125 l38 107 -39 97 c-22 53 -39 100
-39 105 0 5 20 9 44 9 44 0 44 0 66 -55z"/>
<path d="M870 923 c0 -21 -3 -55 -6 -75 -6 -34 -4 -38 15 -38 23 0 25 10 15
98 -8 60 -24 70 -24 15z"/>
<path d="M1954 890 c-9 -80 -9 -80 14 -80 22 0 22 2 16 68 -10 99 -19 103 -30
12z"/>
</g>
</svg>
