<?xml version="1.0" standalone="no"?>
<!DOCTYPE svg PUBLIC "-//W3C//DTD SVG 20010904//EN"
 "http://www.w3.org/TR/2001/REC-SVG-20010904/DTD/svg10.dtd">
<svg version="1.0" xmlns="http://www.w3.org/2000/svg"
 width="350.000000pt" height="175.000000pt" viewBox="0 0 350.000000 175.000000"
 preserveAspectRatio="xMidYMid meet">

<g transform="translate(0.000000,175.000000) scale(0.100000,-0.100000)"
fill="#000000" stroke="none">
<path d="M0 875 l0 -875 1750 0 1750 0 0 875 0 875 -1750 0 -1750 0 0 -875z
m670 150 l65 -180 3 183 2 182 50 0 50 0 0 -314 0 -315 -55 -6 c-31 -4 -57 -6
-59 -4 -2 2 -28 76 -59 164 l-56 160 0 -172 c-1 -158 -3 -173 -18 -173 -10 0
-35 -3 -55 -6 l-38 -7 0 337 0 337 52 -3 53 -3 65 -180z m570 135 l0 -50 -95
0 -95 0 0 -73 0 -73 70 4 70 4 0 -56 0 -56 -70 0 -70 0 0 -76 0 -76 93 3 92 4
0 -50 0 -50 -140 -11 c-77 -7 -143 -10 -147 -7 -5 2 -8 141 -8 309 l0 304 150
0 150 0 0 -50z m390 0 l0 -50 -55 0 -55 0 -2 -242 -3 -243 -52 -3 -53 -3 0
245 0 246 -55 0 -55 0 0 50 0 50 165 0 165 0 0 -50z m360 0 l0 -49 -92 -3 -93
-3 -3 -67 -3 -68 71 0 70 0 0 -50 0 -50 -70 0 -70 0 0 -120 0 -120 -55 0 -55
0 0 290 0 290 150 0 150 0 0 -50z m172 -192 l3 -243 65 -3 c109 -4 110 -5 110
-63 l0 -51 -137 7 c-76 4 -141 9 -145 12 -5 2 -8 134 -8 294 l0 289 55 0 55 0
2 -242z m368 -69 l0 -311 -22 6 c-13 3 -35 6 -50 6 l-28 0 0 305 0 305 50 0
50 0 0 -311z m236 239 c15 -40 30 -76 34 -81 4 -4 23 29 42 73 l37 80 59 0 59
0 -68 -159 -68 -158 69 -177 68 -177 -56 6 c-32 4 -62 14 -69 22 -6 8 -24 50
-40 94 -15 43 -30 79 -33 79 -3 0 -22 -37 -41 -82 l-35 -83 -54 4 c-30 1 -56
4 -58 6 -1 1 27 71 63 156 l66 154 -42 110 c-23 60 -50 131 -60 158 l-19 47
59 0 59 0 28 -72z"/>
</g>
</svg>
