<?xml version="1.0" standalone="no"?>
<!DOCTYPE svg PUBLIC "-//W3C//DTD SVG 20010904//EN"
 "http://www.w3.org/TR/2001/REC-SVG-20010904/DTD/svg10.dtd">
<svg version="1.0" xmlns="http://www.w3.org/2000/svg"
 width="350.000000pt" height="175.000000pt" viewBox="0 0 350.000000 175.000000"
 preserveAspectRatio="xMidYMid meet">

<g transform="translate(0.000000,175.000000) scale(0.100000,-0.100000)"
fill="#000000" stroke="none">
<path d="M0 875 l0 -875 1750 0 1750 0 0 875 0 875 -1750 0 -1750 0 0 -875z
m1005 310 c0 -26 -4 -30 -31 -33 -34 -3 -49 16 -38 50 4 15 13 18 37 16 28 -3
32 -7 32 -33z m1190 0 c0 -26 -3 -30 -29 -30 -36 0 -56 26 -36 50 8 9 24 15
39 13 22 -2 26 -8 26 -33z m295 -150 l0 -185 -29 0 c-16 0 -31 5 -33 11 -3 9
-9 9 -25 0 -27 -14 -78 -14 -104 -1 -49 27 -67 146 -29 207 22 37 53 48 111
40 l39 -5 0 59 0 59 35 0 35 0 0 -185z m-1988 64 c3 -9 9 -9 25 0 27 14 88 14
114 1 58 -32 67 -165 14 -220 -23 -24 -37 -30 -70 -30 -22 0 -46 5 -53 12 -7
7 -12 8 -13 3 0 -6 -1 -32 -2 -60 l-2 -50 -37 -3 -38 -3 0 174 c0 95 3 177 7
180 11 11 51 8 55 -4z m298 -9 l11 -21 26 21 c41 32 63 27 63 -14 0 -34 -1
-35 -42 -38 l-43 -3 -3 -92 -3 -93 -34 0 -35 0 0 123 c0 68 3 127 7 130 13 14
43 6 53 -13z m205 -110 l0 -125 -32 -3 -33 -3 0 131 0 131 33 -3 32 -3 0 -125z
m123 118 c9 -9 18 -9 37 0 14 7 43 12 63 12 21 0 43 -5 50 -12 9 -9 18 -9 37
0 35 16 97 15 121 -2 17 -13 19 -27 19 -128 l0 -113 -32 -3 -33 -3 0 88 c0
107 -11 129 -58 118 l-32 -7 0 -99 0 -99 -35 0 -34 0 -3 96 c-3 109 -14 128
-62 106 -25 -11 -26 -14 -26 -107 l0 -95 -35 0 -35 0 0 123 c0 68 3 127 7 130
10 11 38 8 51 -5z m566 -9 c20 -16 26 -29 26 -59 0 -51 -27 -70 -97 -70 -57 0
-68 -14 -36 -45 13 -13 29 -16 70 -13 53 5 54 4 51 -21 -6 -51 -128 -49 -178
4 -49 52 -32 177 29 210 39 21 104 19 135 -6z m244 -71 c16 -52 32 -86 35 -78
3 8 16 49 29 90 22 72 24 75 56 78 23 2 32 -1 32 -11 0 -8 -20 -66 -44 -128
-41 -107 -45 -114 -73 -117 -16 -2 -34 3 -40 10 -10 14 -93 228 -93 241 0 4
16 7 35 7 l34 0 29 -92z m257 -38 l0 -125 -32 -3 -33 -3 0 131 0 131 33 -3 32
-3 0 -125z m546 101 c35 -36 37 -64 4 -96 -20 -21 -34 -25 -80 -25 -59 0 -71
-13 -38 -45 13 -13 29 -16 71 -13 40 4 55 1 59 -9 17 -45 -113 -65 -165 -26
-63 46 -66 151 -7 210 28 28 40 33 80 33 38 0 52 -5 76 -29z m275 -5 c31 -31
34 -39 34 -96 0 -57 -3 -65 -34 -96 -31 -31 -40 -34 -91 -34 -49 0 -60 4 -85
28 -16 16 -32 45 -35 65 -10 54 3 106 35 139 25 24 36 28 85 28 51 0 60 -3 91
-34z m-595 -351 c18 -12 4 -110 -25 -170 -25 -50 -61 -93 -71 -84 -2 3 8 42
22 88 35 111 32 116 -81 116 -47 0 -86 3 -86 6 0 41 190 75 241 44z m-1234
-55 c188 -95 377 -140 583 -140 144 0 264 20 395 66 55 19 111 36 124 37 46 4
32 -23 -36 -66 -295 -188 -684 -192 -984 -11 -105 64 -218 164 -184 164 2 0
48 -22 102 -50z"/>
<path d="M2337 1042 c-36 -39 -11 -142 33 -142 44 0 50 9 50 80 0 53 -4 69
-16 74 -28 11 -50 6 -67 -12z"/>
<path d="M531 1051 c-19 -12 -19 -130 0 -142 44 -28 89 8 89 71 0 63 -45 99
-89 71z"/>
<path d="M1581 1041 c-18 -32 -13 -41 22 -41 41 0 60 12 55 36 -5 28 -63 32
-77 5z"/>
<path d="M2621 1041 c-19 -35 -13 -42 32 -39 37 3 42 6 42 28 0 21 -5 26 -32
28 -23 2 -34 -2 -42 -17z"/>
<path d="M2903 1052 c-32 -20 -38 -105 -11 -139 16 -20 55 -15 72 9 44 62 -5
165 -61 130z"/>
</g>
</svg>
