<?xml version="1.0" standalone="no"?>
<!DOCTYPE svg PUBLIC "-//W3C//DTD SVG 20010904//EN"
 "http://www.w3.org/TR/2001/REC-SVG-20010904/DTD/svg10.dtd">
<svg version="1.0" xmlns="http://www.w3.org/2000/svg"
 width="350.000000pt" height="175.000000pt" viewBox="0 0 350.000000 175.000000"
 preserveAspectRatio="xMidYMid meet">

<g transform="translate(0.000000,175.000000) scale(0.100000,-0.100000)"
fill="#000000" stroke="none">
<path d="M0 875 l0 -875 1750 0 1750 0 0 875 0 875 -1750 0 -1750 0 0 -875z
m2237 483 c20 -22 21 -35 24 -485 l4 -461 -24 -26 -24 -26 -467 0 -467 0 -24
26 -24 26 2 460 1 460 23 24 22 24 467 0 467 0 20 -22z"/>
<path d="M1385 1214 c-9 -9 -14 -21 -12 -28 6 -17 49 -36 85 -36 22 0 32 -5
32 -15 0 -21 -68 -20 -92 2 -17 15 -18 15 -18 -4 0 -40 128 -40 143 1 8 21
-18 39 -77 52 -51 11 -51 11 -24 24 22 10 31 10 59 -4 39 -19 39 -19 39 -2 0
27 -109 35 -135 10z"/>
<path d="M1575 1205 c-30 -29 -31 -45 -7 -75 12 -15 33 -24 64 -27 40 -5 50
-2 72 20 33 33 33 60 0 86 -38 30 -98 28 -129 -4z m93 -1 c41 -29 23 -84 -28
-84 -32 0 -50 17 -50 46 0 20 32 54 50 54 3 0 16 -7 28 -16z"/>
<path d="M1754 1218 c-3 -4 0 -8 5 -8 16 0 14 -87 -1 -93 -7 -3 5 -6 27 -6 32
0 36 2 23 10 -11 6 -18 22 -18 40 l0 31 49 -41 c27 -23 54 -41 60 -41 7 0 11
20 11 50 0 29 5 50 11 50 5 0 8 4 5 8 -5 9 -53 8 -63 -1 -3 -4 1 -7 10 -7 11
0 17 -8 17 -25 0 -32 -10 -32 -44 4 -27 28 -82 46 -92 29z"/>
<path d="M1950 1223 c0 -2 16 -17 35 -34 35 -31 45 -63 23 -72 -7 -3 7 -6 31
-6 41 -1 43 0 26 13 -18 13 -18 15 8 50 16 20 35 36 43 36 8 0 13 4 10 8 -2 4
-17 7 -33 6 -19 -1 -27 -6 -25 -16 4 -24 -23 -41 -37 -24 -6 8 -10 19 -9 26 2
7 -12 13 -34 14 -21 2 -38 1 -38 -1z"/>
<path d="M1250 738 c0 -324 0 -327 22 -348 21 -20 33 -20 478 -20 445 0 457 0
478 20 20 19 22 30 22 146 0 139 -7 163 -62 209 -66 55 -169 85 -378 110 -307
36 -402 59 -486 116 -23 15 -48 43 -57 61 -16 31 -17 15 -17 -294z m760 14 c0
-5 -31 -76 -69 -158 -71 -152 -92 -177 -134 -161 -16 6 -87 135 -87 157 0 5
13 10 30 10 21 0 36 -9 57 -35 l28 -35 50 103 c34 69 58 106 75 114 29 15 50
17 50 5z m-450 -167 l0 -155 -40 0 -40 0 0 155 0 155 40 0 40 0 0 -155z m118
78 c-2 -13 -14 -19 -41 -21 -32 -3 -37 0 -37 17 0 18 6 21 41 21 33 0 40 -3
37 -17z m2 -138 l0 -95 -40 0 -40 0 0 95 0 95 40 0 40 0 0 -95z"/>
</g>
</svg>
