<?xml version="1.0" standalone="no"?>
<!DOCTYPE svg PUBLIC "-//W3C//DTD SVG 20010904//EN"
 "http://www.w3.org/TR/2001/REC-SVG-20010904/DTD/svg10.dtd">
<svg version="1.0" xmlns="http://www.w3.org/2000/svg"
 width="350.000000pt" height="175.000000pt" viewBox="0 0 350.000000 175.000000"
 preserveAspectRatio="xMidYMid meet">

<g transform="translate(0.000000,175.000000) scale(0.100000,-0.100000)"
fill="#000000" stroke="none">
<path d="M0 875 l0 -875 1750 0 1750 0 0 875 0 875 -1750 0 -1750 0 0 -875z
m1511 495 c20 -6 43 -18 52 -28 14 -16 14 -19 -2 -41 -18 -24 -19 -24 -54 -8
-37 18 -67 14 -67 -8 0 -17 17 -28 73 -49 54 -20 77 -47 77 -91 0 -103 -158
-142 -232 -58 -17 19 -17 20 6 42 l23 22 37 -22 c31 -18 41 -20 62 -10 36 16
26 32 -37 62 -63 31 -87 54 -95 95 -7 37 24 80 69 93 43 12 47 12 88 1z m169
-110 c0 -97 2 -112 20 -130 25 -25 52 -26 73 -2 12 14 17 43 19 127 l3 110 40
0 40 0 3 -101 c3 -124 -10 -169 -58 -202 -29 -20 -44 -23 -93 -20 -49 4 -63 9
-90 36 l-32 32 -3 130 -4 130 41 0 41 0 0 -110z m367 18 l58 -92 3 92 3 92 40
0 39 0 -2 -162 -3 -163 -40 0 c-40 0 -40 0 -95 92 -30 51 -58 92 -62 93 -5 0
-8 -43 -8 -96 l0 -95 -37 3 -38 3 -3 150 c-1 82 0 155 2 162 3 8 22 13 45 13
39 0 40 -1 98 -92z m-764 -439 l107 -171 2 168 3 169 151 3 151 3 49 -73 c60
-90 59 -88 39 -88 -21 0 -95 -41 -95 -52 0 -24 -25 0 -71 70 -28 42 -56 81
-60 87 -5 5 -9 -102 -9 -245 l0 -255 52 78 51 78 27 -30 c15 -16 41 -36 58
-45 l31 -16 -42 -60 -41 -60 -151 2 -150 3 -105 177 c-58 97 -108 177 -112
177 -5 1 -8 -80 -8 -179 l0 -180 -75 0 -75 0 0 305 0 305 83 0 83 0 107 -171z
m1252 101 l0 -65 -82 -3 -83 -3 0 -234 0 -235 -75 0 -75 0 0 234 0 235 -106 3
-107 3 -25 -35 c-14 -19 -29 -39 -33 -44 -4 -5 -22 3 -40 18 -17 15 -45 30
-60 33 -16 3 -29 7 -29 10 0 2 23 38 50 79 l51 74 307 -2 307 -3 0 -65z m-694
-212 c32 -18 58 -36 56 -39 -3 -9 -114 -99 -121 -99 -3 0 -6 38 -6 85 0 47 3
85 6 85 3 0 32 -15 65 -32z m189 -214 c36 -53 67 -101 68 -105 2 -5 -34 -9
-80 -9 l-84 0 -42 60 c-23 32 -42 61 -42 63 0 3 11 8 24 11 13 3 37 21 52 40
16 19 31 35 34 35 3 0 34 -43 70 -95z"/>
</g>
</svg>
