<?xml version="1.0" standalone="no"?>
<!DOCTYPE svg PUBLIC "-//W3C//DTD SVG 20010904//EN"
 "http://www.w3.org/TR/2001/REC-SVG-20010904/DTD/svg10.dtd">
<svg version="1.0" xmlns="http://www.w3.org/2000/svg"
 width="350.000000pt" height="175.000000pt" viewBox="0 0 350.000000 175.000000"
 preserveAspectRatio="xMidYMid meet">

<g transform="translate(0.000000,175.000000) scale(0.100000,-0.100000)"
fill="#000000" stroke="none">
<path d="M0 875 l0 -875 1750 0 1750 0 0 875 0 875 -1750 0 -1750 0 0 -875z
m2018 481 c18 -9 39 -34 53 -63 23 -47 24 -56 27 -355 4 -307 4 -308 -17 -308
-21 0 -21 3 -22 278 0 187 -4 288 -12 311 -18 51 -58 76 -122 76 -63 0 -105
-26 -118 -71 -14 -49 6 -81 66 -108 66 -29 102 -71 123 -144 32 -109 2 -232
-70 -287 -62 -47 -110 -55 -338 -55 l-208 0 0 245 0 245 45 0 45 0 0 -225 0
-225 90 0 90 0 0 183 c0 217 8 242 81 267 l44 15 -13 40 c-24 72 17 157 92
191 38 17 121 12 164 -10z m577 -51 c14 -13 25 -31 25 -40 0 -20 -44 -65 -63
-65 -24 0 -67 40 -67 63 1 36 30 64 68 66 7 1 24 -10 37 -24z m140 -194 c85
-39 125 -114 125 -235 0 -88 -22 -139 -79 -188 -42 -36 -103 -58 -160 -58 -41
0 -47 -15 -17 -45 21 -21 34 -25 86 -25 l60 0 0 -30 c0 -30 0 -30 -59 -30 -50
0 -71 -6 -137 -41 -75 -40 -79 -41 -161 -37 -81 3 -86 4 -114 36 -36 40 -39
92 -8 123 28 28 73 23 77 -9 3 -19 0 -23 -19 -20 -28 4 -48 -25 -33 -49 29
-46 135 -56 189 -17 15 10 40 26 57 36 l29 16 -27 14 c-18 8 -32 25 -38 46
l-9 32 -128 0 -129 0 0 245 0 245 40 0 40 0 0 -225 0 -225 89 0 89 0 4 189 c3
174 5 192 24 218 11 15 32 34 45 40 35 18 118 15 164 -6z m-1535 -11 c0 -18
-7 -20 -80 -20 l-80 0 0 -80 0 -80 66 0 c126 0 177 -47 182 -170 4 -96 -20
-141 -96 -186 -65 -39 -93 -44 -269 -44 -180 0 -226 -17 -173 -65 11 -10 20
-24 20 -31 0 -16 -39 -44 -62 -44 -54 0 -79 97 -35 137 40 36 50 38 237 43
161 5 189 8 218 25 47 28 73 76 79 143 9 98 -36 152 -127 152 l-40 0 0 -58 c0
-127 -73 -196 -205 -196 -115 0 -185 58 -185 153 0 59 16 90 63 120 l37 24 0
99 0 98 225 0 c218 0 225 -1 225 -20z"/>
<path d="M1755 1070 c-18 -20 -20 -39 -23 -211 l-3 -189 26 0 c138 0 231 109
210 248 -15 100 -67 162 -142 169 -40 4 -51 1 -68 -17z"/>
<path d="M2610 1070 c-19 -19 -20 -33 -20 -210 l0 -190 28 0 c46 0 100 19 133
47 127 107 67 373 -85 373 -23 0 -43 -7 -56 -20z"/>
<path d="M800 1000 l0 -81 76 3 76 3 0 75 0 75 -76 3 -76 3 0 -81z"/>
<path d="M744 870 c-51 -20 -71 -101 -38 -149 48 -68 191 -65 227 6 8 15 17
56 19 91 l4 62 -95 -1 c-53 0 -106 -4 -117 -9z"/>
</g>
</svg>
