<?xml version="1.0" standalone="no"?>
<!DOCTYPE svg PUBLIC "-//W3C//DTD SVG 20010904//EN"
 "http://www.w3.org/TR/2001/REC-SVG-20010904/DTD/svg10.dtd">
<svg version="1.0" xmlns="http://www.w3.org/2000/svg"
 width="350.000000pt" height="175.000000pt" viewBox="0 0 350.000000 175.000000"
 preserveAspectRatio="xMidYMid meet">

<g transform="translate(0.000000,175.000000) scale(0.100000,-0.100000)"
fill="#000000" stroke="none">
<path d="M0 875 l0 -875 1750 0 1750 0 0 875 0 875 -1750 0 -1750 0 0 -875z
m1212 249 c108 -11 128 -53 128 -262 -1 -217 -14 -237 -175 -253 -106 -11
-425 -6 -487 7 -73 16 -94 81 -91 279 3 202 22 224 204 235 122 8 308 5 421
-6z m1378 -96 c0 -78 1 -80 18 -65 23 21 62 22 87 3 46 -34 39 -286 -9 -318
-20 -13 -69 -8 -88 9 -17 15 -18 15 -18 -1 0 -13 -7 -17 -32 -14 l-33 3 -3
233 -2 232 40 0 40 0 0 -82z m-1082 -20 c12 -51 23 -102 25 -113 2 -11 9 7 16
40 32 153 35 160 65 163 16 2 32 0 36 -5 4 -4 -12 -78 -36 -163 -36 -124 -44
-168 -42 -220 l3 -65 -38 -3 -37 -3 0 73 c0 54 -10 110 -40 218 -22 80 -40
151 -40 158 0 7 13 12 34 12 l34 0 20 -92z m782 57 c0 -33 -2 -35 -35 -35
l-35 0 0 -195 0 -195 -40 0 -40 0 0 195 0 195 -35 0 c-33 0 -35 2 -35 35 l0
35 110 0 110 0 0 -35z m-497 -96 c45 -21 66 -112 52 -224 -9 -78 -36 -105
-103 -105 -39 0 -53 5 -72 25 -20 22 -24 38 -28 113 -5 109 9 166 46 186 33
18 72 20 105 5z m1128 -8 c20 -16 25 -31 29 -96 3 -42 3 -78 1 -81 -2 -2 -31
-4 -63 -4 l-59 0 3 -42 c2 -35 7 -44 24 -46 16 -2 23 4 28 22 5 21 13 26 36
26 26 0 30 -4 30 -28 0 -53 -62 -88 -125 -71 -55 16 -67 50 -63 181 3 106 4
111 31 134 35 30 94 32 128 5z m-959 -128 c3 -130 4 -138 23 -138 19 0 20 8
23 138 l3 137 39 0 40 0 0 -165 0 -165 -30 0 c-20 0 -30 5 -30 15 0 19 -9 19
-32 -2 -25 -22 -77 -21 -94 2 -10 14 -14 58 -14 167 l0 148 35 0 34 0 3 -137z
m378 10 c0 -137 7 -165 37 -147 16 10 18 29 21 143 l3 131 34 0 35 0 0 -165 0
-165 -30 0 c-20 0 -30 5 -30 15 0 19 -9 19 -31 -1 -26 -24 -69 -21 -91 6 -15
19 -18 42 -18 166 l0 144 35 0 35 0 0 -127z"/>
<path d="M890 871 l0 -112 28 15 c15 8 58 32 95 54 l68 40 -63 37 c-35 21 -78
47 -95 57 l-33 20 0 -111z"/>
<path d="M2602 918 c-8 -8 -12 -48 -12 -115 0 -85 3 -105 16 -110 8 -3 21 0
27 6 16 16 22 168 8 204 -12 30 -21 33 -39 15z"/>
<path d="M1726 914 c-3 -9 -6 -60 -6 -115 0 -82 3 -101 16 -106 9 -3 20 0 25
8 14 22 11 203 -3 217 -16 16 -25 15 -32 -4z"/>
<path d="M2836 915 c-3 -9 -6 -32 -6 -51 0 -30 3 -34 26 -34 24 0 25 2 22 47
-2 35 -8 49 -19 51 -9 2 -19 -4 -23 -13z"/>
</g>
</svg>
