<?xml version="1.0" standalone="no"?>
<!DOCTYPE svg PUBLIC "-//W3C//DTD SVG 20010904//EN"
 "http://www.w3.org/TR/2001/REC-SVG-20010904/DTD/svg10.dtd">
<svg version="1.0" xmlns="http://www.w3.org/2000/svg"
 width="350.000000pt" height="175.000000pt" viewBox="0 0 350.000000 175.000000"
 preserveAspectRatio="xMidYMid meet">

<g transform="translate(0.000000,175.000000) scale(0.100000,-0.100000)"
fill="#000000" stroke="none">
<path d="M0 875 l0 -875 1750 0 1750 0 0 875 0 875 -1750 0 -1750 0 0 -875z
m1765 505 c0 -10 -12 -16 -35 -18 -35 -2 -160 -32 -160 -37 0 -2 3 -10 6 -18
5 -14 10 -14 47 0 28 11 75 17 142 17 84 0 110 -4 160 -24 36 -15 60 -31 60
-40 0 -18 -13 -17 -90 11 -91 32 -216 25 -305 -18 -86 -42 -119 -68 -103 -84
9 -9 19 -6 42 10 52 37 134 70 193 77 73 8 130 -2 126 -22 -2 -11 12 -22 39
-32 93 -37 189 -136 209 -214 l6 -28 -61 0 -61 0 0 -85 0 -85 61 0 61 0 -7
-27 c-10 -44 -64 -121 -111 -159 -62 -51 -130 -74 -218 -74 -55 0 -75 -4 -79
-14 -8 -19 14 -26 78 -26 69 0 160 29 219 70 36 24 51 29 59 21 16 -16 -17
-42 -100 -82 -107 -52 -234 -56 -338 -10 -37 16 -50 18 -56 9 -11 -18 -4 -25
59 -49 72 -29 232 -32 299 -6 38 14 42 14 47 0 4 -9 5 -17 4 -18 -14 -11 -84
-28 -133 -34 -44 -4 -60 -10 -60 -21 0 -21 -28 -24 -99 -10 -182 35 -337 171
-398 349 -30 87 -32 239 -4 321 56 166 183 294 341 343 94 30 160 33 160 7z
m515 -429 c0 -6 -17 -11 -37 -13 -27 -2 -39 -8 -41 -20 -3 -14 3 -18 24 -18
48 0 81 -50 56 -86 -22 -34 -87 -39 -112 -9 -16 20 4 27 35 13 21 -9 29 -9 42
4 24 25 9 46 -34 50 -41 3 -50 19 -39 64 6 21 12 24 56 24 28 0 50 -4 50 -9z
m-170 -41 c0 -17 -7 -20 -45 -20 -38 0 -45 3 -45 20 0 17 7 20 45 20 38 0 45
-3 45 -20z m0 -70 c0 -17 -7 -20 -45 -20 -38 0 -45 3 -45 20 0 17 7 20 45 20
38 0 45 -3 45 -20z"/>
<path d="M1620 945 c0 -11 12 -15 46 -15 l46 0 -51 -59 c-28 -32 -51 -64 -51
-70 0 -7 27 -11 75 -11 59 0 75 3 75 14 0 11 -14 16 -47 18 l-46 3 46 54 c26
30 47 61 47 68 0 9 -19 13 -70 13 -56 0 -70 -3 -70 -15z"/>
<path d="M1800 875 l0 -85 70 0 c56 0 70 3 70 15 0 11 -12 15 -50 15 -43 0
-50 3 -50 20 0 17 7 20 50 20 38 0 50 4 50 15 0 11 -12 15 -50 15 -43 0 -50 3
-50 20 0 17 7 20 50 20 38 0 50 4 50 15 0 12 -14 15 -70 15 l-70 0 0 -85z"/>
</g>
</svg>
